<?xml version="1.0" encoding="UTF-8"?>
<svg width="120px" height="52px" viewBox="0 0 120 52" version="1.1" xmlns="http://www.w3.org/2000/svg" xmlns:xlink="http://www.w3.org/1999/xlink">
    <!-- Generator: Sketch 64 (93537) - https://sketch.com -->
    <title>Group 2</title>
    <desc>Created with Sketch.</desc>
    <g id="UI" stroke="none" stroke-width="1" fill="none" fill-rule="evenodd">
        <g id="Account----Booking---Empty" transform="translate(-118.000000, -333.000000)">
            <g id="Group-2" transform="translate(118.000000, 332.000000)">
                <g id="Group-7">
                    <path d="M114.97006,1.5 C117.748019,1.5 120,3.76325608 120,6.55512394 C120,9.34699179 117.748019,11.6102479 114.97006,11.6102479 L86.2275449,11.6102479 C89.0055041,11.6102479 91.257485,13.873504 91.257485,16.6653718 C91.257485,19.4572397 89.0055041,21.7204957 86.2275449,21.7204957 L102.035928,21.7204957 C104.813887,21.7204957 107.065868,23.9837518 107.065868,26.7756197 C107.065868,29.5674875 104.813887,31.8307436 102.035928,31.8307436 L94.7253319,31.8307436 C91.2226877,31.8307436 88.3832335,34.0939997 88.3832335,36.8858676 C88.3832335,38.7471128 89.8203593,40.4321541 92.6946108,41.9409915 C95.47257,41.9409915 97.7245509,44.2042476 97.7245509,46.9961154 C97.7245509,49.7879833 95.47257,52.0512394 92.6946108,52.0512394 L33.0538922,52.0512394 C30.275933,52.0512394 28.0239521,49.7879833 28.0239521,46.9961154 C28.0239521,44.2042476 30.275933,41.9409915 33.0538922,41.9409915 L5.02994012,41.9409915 C2.2519809,41.9409915 0,39.6777354 0,36.8858676 C0,34.0939997 2.2519809,31.8307436 5.02994012,31.8307436 L33.7724551,31.8307436 C36.5504143,31.8307436 38.8023952,29.5674875 38.8023952,26.7756197 C38.8023952,23.9837518 36.5504143,21.7204957 33.7724551,21.7204957 L15.8083832,21.7204957 C13.030424,21.7204957 10.7784431,19.4572397 10.7784431,16.6653718 C10.7784431,13.873504 13.030424,11.6102479 15.8083832,11.6102479 L44.5508982,11.6102479 C41.772939,11.6102479 39.5209581,9.34699179 39.5209581,6.55512394 C39.5209581,3.76325608 41.772939,1.5 44.5508982,1.5 L114.97006,1.5 Z M114.97006,21.7204957 C117.748019,21.7204957 120,23.9837518 120,26.7756197 C120,29.5674875 117.748019,31.8307436 114.97006,31.8307436 C112.192101,31.8307436 109.94012,29.5674875 109.94012,26.7756197 C109.94012,23.9837518 112.192101,21.7204957 114.97006,21.7204957 Z" id="Background" fill="#E2EAF3"></path>
                    <g id="Group-13" transform="translate(38.250000, 0.000000)">
                        <g id="Group-10">
                            <g id="Group-9" transform="translate(0.272727, 0.797599)"></g>
                        </g>
                    </g>
                </g>
                <g id="bling" transform="translate(12.500000, 39.750000)" fill="#A3B6D6">
                    <path d="M5.72727273,6.75 C6.32976518,6.75 6.81818182,7.25367966 6.81818182,7.875 L6.81818182,7.875 L6.81818182,10.125 C6.81818182,10.7463203 6.32976518,11.25 5.72727273,11.25 C5.12478027,11.25 4.63636364,10.7463203 4.63636364,10.125 L4.63636364,10.125 L4.63636364,7.875 C4.63636364,7.25367966 5.12478027,6.75 5.72727273,6.75 Z M3.57954545,4.53409091 C4.2008658,4.53409091 4.70454545,5.02250755 4.70454545,5.625 C4.70454545,6.22749245 4.2008658,6.71590909 3.57954545,6.71590909 L3.57954545,6.71590909 L1.32954545,6.71590909 C0.708225111,6.71590909 0.204545455,6.22749245 0.204545455,5.625 C0.204545455,5.02250755 0.708225111,4.53409091 1.32954545,4.53409091 L1.32954545,4.53409091 Z M10.125,4.53409091 C10.7463203,4.53409091 11.25,5.02250755 11.25,5.625 C11.25,6.22749245 10.7463203,6.71590909 10.125,6.71590909 L10.125,6.71590909 L7.875,6.71590909 C7.25367966,6.71590909 6.75,6.22749245 6.75,5.625 C6.75,5.02250755 7.25367966,4.53409091 7.875,4.53409091 L7.875,4.53409091 Z M5.72727273,0 C6.32976518,0 6.81818182,0.503679656 6.81818182,1.125 L6.81818182,1.125 L6.81818182,3.375 C6.81818182,3.99632034 6.32976518,4.5 5.72727273,4.5 C5.12478027,4.5 4.63636364,3.99632034 4.63636364,3.375 L4.63636364,3.375 L4.63636364,1.125 C4.63636364,0.503679656 5.12478027,0 5.72727273,0 Z" id="Combined-Shape"></path>
                </g>
                <path d="M105.25,39 C105.664214,39 106,39.3357864 106,39.75 L106,39.75 L106,42 C106,42.4142136 105.664214,42.75 105.25,42.75 C104.835786,42.75 104.5,42.4142136 104.5,42 L104.5,42 L104.5,39.75 C104.5,39.3357864 104.835786,39 105.25,39 Z M103.75,37.5 C104.164214,37.5 104.5,37.8357864 104.5,38.25 C104.5,38.6642136 104.164214,39 103.75,39 L103.75,39 L101.5,39 C101.085786,39 100.75,38.6642136 100.75,38.25 C100.75,37.8357864 101.085786,37.5 101.5,37.5 L101.5,37.5 Z M109,37.5 C109.414214,37.5 109.75,37.8357864 109.75,38.25 C109.75,38.6642136 109.414214,39 109,39 L109,39 L106.75,39 C106.335786,39 106,38.6642136 106,38.25 C106,37.8357864 106.335786,37.5 106.75,37.5 L106.75,37.5 Z M105.25,33.75 C105.664214,33.75 106,34.0857864 106,34.5 L106,34.5 L106,36.75 C106,37.1642136 105.664214,37.5 105.25,37.5 C104.835786,37.5 104.5,37.1642136 104.5,36.75 L104.5,36.75 L104.5,34.5 C104.5,34.0857864 104.835786,33.75 105.25,33.75 Z" id="Combined-Shape-Copy" fill="#A3B6D6"></path>
                <path d="M94,19.375 C94.345178,19.375 94.625,19.654822 94.625,20 L94.625,20 L94.625,21.875 C94.625,22.220178 94.345178,22.5 94,22.5 C93.654822,22.5 93.375,22.220178 93.375,21.875 L93.375,21.875 L93.375,20 C93.375,19.654822 93.654822,19.375 94,19.375 Z M92.75,18.125 C93.095178,18.125 93.375,18.404822 93.375,18.75 C93.375,19.095178 93.095178,19.375 92.75,19.375 L92.75,19.375 L90.875,19.375 C90.529822,19.375 90.25,19.095178 90.25,18.75 C90.25,18.404822 90.529822,18.125 90.875,18.125 L90.875,18.125 Z M97.125,18.125 C97.470178,18.125 97.75,18.404822 97.75,18.75 C97.75,19.095178 97.470178,19.375 97.125,19.375 L97.125,19.375 L95.25,19.375 C94.904822,19.375 94.625,19.095178 94.625,18.75 C94.625,18.404822 94.904822,18.125 95.25,18.125 L95.25,18.125 Z M94,15 C94.345178,15 94.625,15.279822 94.625,15.625 L94.625,15.625 L94.625,17.5 C94.625,17.845178 94.345178,18.125 94,18.125 C93.654822,18.125 93.375,17.845178 93.375,17.5 L93.375,17.5 L93.375,15.625 C93.375,15.279822 93.654822,15 94,15 Z" id="Combined-Shape-Copy-4" fill="#A3B6D6"></path>
                <path d="M26,11.25 C26.4142136,11.25 26.75,11.5857864 26.75,12 L26.75,12 L26.75,14.25 C26.75,14.6642136 26.4142136,15 26,15 C25.5857864,15 25.25,14.6642136 25.25,14.25 L25.25,14.25 L25.25,12 C25.25,11.5857864 25.5857864,11.25 26,11.25 Z M24.5,9.75 C24.9142136,9.75 25.25,10.0857864 25.25,10.5 C25.25,10.9142136 24.9142136,11.25 24.5,11.25 L24.5,11.25 L22.25,11.25 C21.8357864,11.25 21.5,10.9142136 21.5,10.5 C21.5,10.0857864 21.8357864,9.75 22.25,9.75 L22.25,9.75 Z M29.75,9.75 C30.1642136,9.75 30.5,10.0857864 30.5,10.5 C30.5,10.9142136 30.1642136,11.25 29.75,11.25 L29.75,11.25 L27.5,11.25 C27.0857864,11.25 26.75,10.9142136 26.75,10.5 C26.75,10.0857864 27.0857864,9.75 27.5,9.75 L27.5,9.75 Z M26,6 C26.4142136,6 26.75,6.33578644 26.75,6.75 L26.75,6.75 L26.75,9 C26.75,9.41421356 26.4142136,9.75 26,9.75 C25.5857864,9.75 25.25,9.41421356 25.25,9 L25.25,9 L25.25,6.75 C25.25,6.33578644 25.5857864,6 26,6 Z" id="Combined-Shape-Copy-3" fill="#A3B6D6"></path>
                <path d="M78.3485357,21.0665684 C77.1798658,18.0233803 75.6573556,15.0416957 73.9267772,13.9161835 C67.9401475,10.0279388 52.060939,10.0279388 46.0743092,13.9161835 C44.342485,15.0429258 42.8262043,18.0283006 41.6513049,21.0665684 L39.0199288,26.8823295 C37.6656173,28.4248347 37.0090192,30.367112 37,32.3106193 C36.9915764,34.7117119 37.9148007,36.8815517 39.6030178,38.4166765 C39.6217066,38.4326673 39.6403953,38.443738 39.6578381,38.4597288 L39.6578381,43.1548981 C39.6578381,44.1721643 40.4950942,45 41.5267132,45 L49.1081168,45 C50.1397359,45 50.9769919,44.1721643 50.9769919,43.1548981 L50.9769919,41.2679739 L69.0216027,41.2679739 L69.0216027,43.1548981 C69.0216027,44.1721643 69.8588587,45 70.8904778,45 L78.4718814,45 C79.5010086,45 80.3407565,44.1721643 80.3407565,43.1548981 L80.3407565,38.5519839 C82.1323847,36.9319845 82.9883295,34.7031014 83,32.4779085 C83.0070182,30.4679775 82.3205181,28.4543563 80.886468,26.8798694 L78.3485357,21.0665684 Z" id="Shape" stroke="#A3B6D6" stroke-width="2" stroke-linejoin="bevel" stroke-dasharray="4" fill-rule="nonzero"></path>
            </g>
        </g>
    </g>
</svg>