<svg width="22" height="22" viewBox="0 0 22 22" fill="none" xmlns="http://www.w3.org/2000/svg">
<path d="M3.22222 5.99999C4.44952 5.99999 5.44444 4.8807 5.44444 3.5C5.44444 2.11929 4.44952 1 3.22222 1C1.99492 1 1 2.11929 1 3.5C1 4.8807 1.99492 5.99999 3.22222 5.99999Z" stroke="black" stroke-width="2" stroke-linecap="round" stroke-linejoin="round"/>
<path d="M11.0001 5.99999C12.2274 5.99999 13.2223 4.8807 13.2223 3.5C13.2223 2.11929 12.2274 1 11.0001 1C9.77275 1 8.77783 2.11929 8.77783 3.5C8.77783 4.8807 9.77275 5.99999 11.0001 5.99999Z" stroke="black" stroke-width="2" stroke-linecap="round" stroke-linejoin="round"/>
<path d="M18.7779 5.99999C20.0052 5.99999 21.0001 4.8807 21.0001 3.5C21.0001 2.11929 20.0052 1 18.7779 1C17.5506 1 16.5557 2.11929 16.5557 3.5C16.5557 4.8807 17.5506 5.99999 18.7779 5.99999Z" stroke="black" stroke-width="2" stroke-linecap="round" stroke-linejoin="round"/>
<path d="M3.22222 21C4.44952 21 5.44444 19.8807 5.44444 18.5C5.44444 17.1193 4.44952 16 3.22222 16C1.99492 16 1 17.1193 1 18.5C1 19.8807 1.99492 21 3.22222 21Z" stroke="black" stroke-width="2" stroke-linecap="round" stroke-linejoin="round"/>
<path d="M11.0001 21C12.2274 21 13.2223 19.8807 13.2223 18.5C13.2223 17.1193 12.2274 16 11.0001 16C9.77275 16 8.77783 17.1193 8.77783 18.5C8.77783 19.8807 9.77275 21 11.0001 21Z" stroke="black" stroke-width="2" stroke-linecap="round" stroke-linejoin="round"/>
<path d="M3.22217 6V16" stroke="black" stroke-width="2" stroke-linecap="round" stroke-linejoin="round"/>
<path d="M11 6V16" stroke="black" stroke-width="2" stroke-linecap="round" stroke-linejoin="round"/>
<path d="M18.7777 6V8.5C18.7777 9.16304 18.5436 9.79892 18.1269 10.2678C17.7101 10.7366 17.1449 11 16.5555 11H3.22217" stroke="black" stroke-width="2" stroke-linecap="round" stroke-linejoin="round"/>
</svg>
