<svg xmlns="http://www.w3.org/2000/svg" width="512" height="512" style="" viewBox="0 0 512 512" data-svgdocument="" id="_fuyjpkTZdg01JoXmZd7Tc" class="fl-svgdocument" x="0" y="0" xmlns:xlink="http://www.w3.org/1999/xlink">
  <defs id="_tWshgPn9TvJdNBoabsr7q" transform="matrix(0.8804929035579145, 0, 0, 0.8804929035579145, 24.99928071257259, 21.41322415496659)" />
  <path id="_7MvMgRWMfzrsDGih34xor" d="M859.879 829.376c-2.57 2.693-5.148 5.377-7.711 8.078-48.885 51.41-97.713 102.88-146.736 154.156-4.877 5.099-5.236 8.605 0.405 13.107 5.458 4.361 10.846 8.975 15.437 14.203 5.855 6.664 10.186 6.657 17.125 0.657 39.475-34.124 78.587-68.745 119.417-101.189 47.801-37.989 97.236-73.916 145.953-110.748 2.735-2.066 5.374-4.258 9.174-7.279-3.59-2.998-6.241-5.553-9.216-7.638-91.614-64.135-177.98-134.851-261.906-208.637-12.909-11.347-10.468-11.778-23.431 0.286-19.348 18.015-19.233 17.843-0.917 37.038 46.342 48.568 92.534 97.266 138.773 145.934 1.226 1.291 2.204 2.826 3.972 5.133-2.788 0.47-4.533 1.001-6.283 1.024-74.206 0.936-148.153-1.264-221.282-15.807-153.015-30.423-285.344-98.909-391.93-213.953-86.244-93.088-141.645-202.721-170.732-325.934-15.796-66.908-21.891-134.82-21.047-203.458 0.176-14.15 0.008-14.161-14.135-14.223-7.951-0.038-15.918 0.244-23.858-0.103-8.265-0.359-10.835 3.158-10.908 11.351-0.493 58.96 2.91 117.573 13.241 175.716 19.508 109.801 58.712 211.814 121.384 304.272 101.028 149.054 238.961 247.913 411.029 299.578 68.84 20.673 139.323 32.173 211.173 34.651 30.19 1.043 60.419 1.043 90.629 1.505 3.773 0.057 7.547 0.008 11.316 0.008 0.355 0.76 0.71 1.52 1.062 2.272z" fill="#ffc91a" transform="matrix(0.06097797472367141, -0.11964012187966702, 0.11964012187966702, 0.06097797472367141, 279.7212331892172, 294.7306225944262)" />
  <path text="life" text-anchor="end" font-size="100" letter-spacing="0" side="left" offset="1" dx="0" dy="0" space="preserve" href="" font-family="Montserrat" font-scale="contain" transform="matrix(0.771871574407245, 0, 0, 0.771871574407245, 357.6748629289589, 280.56820851873044)" x="0" y="0" fill="#ffff" font-weight="700" data-fl-textpath="" id="_0mVXTkBpQNTpfrB0MC3Dp" d="M-154.10000000000002 0L-154.10000000000002-74.2L-138.5-74.2L-138.5 0L-154.10000000000002 0ZM-124.00000000000001 0L-124.00000000000001-53.8L-108.40000000000002-53.8L-108.40000000000002 0L-124.00000000000001 0ZM-116.20000000000002-61.3Q-120.50000000000001-61.3 -123.20000000000002-63.8Q-125.90000000000002-66.3 -125.90000000000002-70L-125.90000000000002-70Q-125.90000000000002-73.7 -123.20000000000002-76.2Q-120.50000000000001-78.7 -116.20000000000002-78.7L-116.20000000000002-78.7Q-111.90000000000002-78.7 -109.20000000000002-76.3Q-106.50000000000001-73.9 -106.50000000000001-70.3L-106.50000000000001-70.3Q-106.50000000000001-66.4 -109.20000000000002-63.85Q-111.90000000000002-61.3 -116.20000000000002-61.3L-116.20000000000002-61.3ZM-76.80000000000003-54.9L-76.80000000000003-52.6L-63.00000000000002-52.6L-63.00000000000002-40.6L-76.40000000000002-40.6L-76.40000000000002 0L-92.00000000000003 0L-92.00000000000003-40.6L-100.30000000000003-40.6L-100.30000000000003-52.6L-92.00000000000003-52.6L-92.00000000000003-55Q-92.00000000000003-64.2 -86.55000000000003-69.6Q-81.10000000000002-75 -71.20000000000002-75L-71.20000000000002-75Q-67.70000000000002-75 -64.55000000000003-74.25Q-61.40000000000002-73.5 -59.300000000000026-72.1L-59.300000000000026-72.1L-63.40000000000002-60.8Q-66.10000000000002-62.7 -69.70000000000002-62.7L-69.70000000000002-62.7Q-76.80000000000003-62.7 -76.80000000000003-54.9L-76.80000000000003-54.9ZM-3.200000000000024-26.7Q-3.200000000000024-26.4 -3.5000000000000213-22.5L-3.5000000000000213-22.5L-44.200000000000024-22.5Q-43.10000000000002-17.5 -39.00000000000002-14.6Q-34.90000000000002-11.7 -28.800000000000026-11.7L-28.800000000000026-11.7Q-24.600000000000023-11.7 -21.350000000000023-12.95Q-18.100000000000023-14.2 -15.300000000000026-16.9L-15.300000000000026-16.9L-7.000000000000021-7.9Q-14.600000000000023 0.8 -29.200000000000024 0.8L-29.200000000000024 0.8Q-38.300000000000026 0.8 -45.300000000000026-2.75Q-52.300000000000026-6.3 -56.10000000000002-12.6Q-59.90000000000002-18.9 -59.90000000000002-26.9L-59.90000000000002-26.9Q-59.90000000000002-34.8 -56.15000000000002-41.15Q-52.40000000000002-47.5 -45.85000000000002-51.05Q-39.300000000000026-54.6 -31.200000000000024-54.6L-31.200000000000024-54.6Q-23.300000000000026-54.6 -16.90000000000002-51.2Q-10.500000000000021-47.8 -6.850000000000023-41.45Q-3.200000000000024-35.1 -3.200000000000024-26.7L-3.200000000000024-26.7ZM-31.100000000000023-42.8Q-36.40000000000002-42.8 -40.00000000000002-39.8Q-43.60000000000002-36.8 -44.40000000000002-31.6L-44.40000000000002-31.6L-17.90000000000002-31.6Q-18.700000000000024-36.7 -22.300000000000026-39.75Q-25.90000000000002-42.8 -31.100000000000023-42.8L-31.100000000000023-42.8Z" />
  <path text="car easy" text-anchor="end" font-size="100" letter-spacing="0" side="left" offset="1" dx="0" dy="0" space="preserve" href="" font-family="Montserrat" font-scale="contain" transform="matrix(0.771871574407245, 0, 0, 0.771871574407245, 430.5395569873608, 209.78478937677815)" x="0" y="0" fill="#ffff" font-weight="700" data-fl-textpath="" id="_k9PuFdTnD4UnJoYOtZN1a" d="M-394.20000000000005 0.8Q-402.8 0.8 -409.65000000000003-2.75Q-416.50000000000006-6.3 -420.35-12.6Q-424.20000000000005-18.9 -424.20000000000005-26.9L-424.20000000000005-26.9Q-424.20000000000005-34.9 -420.35-41.2Q-416.50000000000006-47.5 -409.65000000000003-51.05Q-402.8-54.6 -394.20000000000005-54.6L-394.20000000000005-54.6Q-385.70000000000005-54.6 -379.35-51.05Q-373.00000000000006-47.5 -370.1-40.9L-370.1-40.9L-382.20000000000005-34.4Q-386.40000000000003-41.8 -394.3-41.8L-394.3-41.8Q-400.40000000000003-41.8 -404.40000000000003-37.8Q-408.40000000000003-33.8 -408.40000000000003-26.9L-408.40000000000003-26.9Q-408.40000000000003-20 -404.40000000000003-16Q-400.40000000000003-12 -394.3-12L-394.3-12Q-386.3-12 -382.20000000000005-19.4L-382.20000000000005-19.4L-370.1-12.8Q-373.00000000000006-6.4 -379.35-2.8Q-385.70000000000005 0.8 -394.20000000000005 0.8L-394.20000000000005 0.8ZM-339.40000000000003-54.6Q-326.90000000000003-54.6 -320.2-48.65Q-313.5-42.7 -313.5-30.7L-313.5-30.7L-313.5 0L-328.1 0L-328.1-6.7Q-332.5 0.8 -344.5 0.8L-344.5 0.8Q-350.7 0.8 -355.25-1.3Q-359.8-3.4 -362.2-7.1Q-364.6-10.8 -364.6-15.5L-364.6-15.5Q-364.6-23 -358.95-27.3Q-353.3-31.6 -341.5-31.6L-341.5-31.6L-329.1-31.6Q-329.1-36.7 -332.2-39.45Q-335.3-42.2 -341.5-42.2L-341.5-42.2Q-345.8-42.2 -349.95-40.85Q-354.1-39.5 -357-37.2L-357-37.2L-362.6-48.1Q-358.2-51.2 -352.05-52.9Q-345.90000000000003-54.6 -339.40000000000003-54.6L-339.40000000000003-54.6ZM-340.6-9.7Q-336.6-9.7 -333.5-11.55Q-330.40000000000003-13.4 -329.1-17L-329.1-17L-329.1-22.5L-339.8-22.5Q-349.40000000000003-22.5 -349.40000000000003-16.2L-349.40000000000003-16.2Q-349.40000000000003-13.2 -347.05-11.45Q-344.7-9.7 -340.6-9.7L-340.6-9.7ZM-284.5-46.7Q-281.70000000000005-50.6 -276.95000000000005-52.6Q-272.20000000000005-54.6 -266-54.6L-266-54.6L-266-40.2Q-268.6-40.4 -269.5-40.4L-269.5-40.4Q-276.20000000000005-40.4 -280-36.65Q-283.8-32.9 -283.8-25.4L-283.8-25.4L-283.8 0L-299.40000000000003 0L-299.40000000000003-53.8L-284.5-53.8L-284.5-46.7ZM-175.29999999999998-26.7Q-175.29999999999998-26.4 -175.6-22.5L-175.6-22.5L-216.29999999999998-22.5Q-215.2-17.5 -211.1-14.6Q-207-11.7 -200.89999999999998-11.7L-200.89999999999998-11.7Q-196.7-11.7 -193.45-12.95Q-190.2-14.2 -187.39999999999998-16.9L-187.39999999999998-16.9L-179.1-7.9Q-186.7 0.8 -201.29999999999998 0.8L-201.29999999999998 0.8Q-210.39999999999998 0.8 -217.39999999999998-2.75Q-224.39999999999998-6.3 -228.2-12.6Q-232-18.9 -232-26.9L-232-26.9Q-232-34.8 -228.25-41.15Q-224.5-47.5 -217.95-51.05Q-211.39999999999998-54.6 -203.29999999999998-54.6L-203.29999999999998-54.6Q-195.39999999999998-54.6 -189-51.2Q-182.6-47.8 -178.95-41.45Q-175.29999999999998-35.1 -175.29999999999998-26.7L-175.29999999999998-26.7ZM-203.2-42.8Q-208.5-42.8 -212.1-39.8Q-215.7-36.8 -216.5-31.6L-216.5-31.6L-190-31.6Q-190.79999999999998-36.7 -194.39999999999998-39.75Q-198-42.8 -203.2-42.8L-203.2-42.8ZM-144.7-54.6Q-132.2-54.6 -125.5-48.65Q-118.8-42.7 -118.8-30.7L-118.8-30.7L-118.8 0L-133.39999999999998 0L-133.39999999999998-6.7Q-137.8 0.8 -149.79999999999998 0.8L-149.79999999999998 0.8Q-156 0.8 -160.54999999999998-1.3Q-165.1-3.4 -167.5-7.1Q-169.9-10.8 -169.9-15.5L-169.9-15.5Q-169.9-23 -164.25-27.3Q-158.6-31.6 -146.79999999999998-31.6L-146.79999999999998-31.6L-134.39999999999998-31.6Q-134.39999999999998-36.7 -137.5-39.45Q-140.6-42.2 -146.79999999999998-42.2L-146.79999999999998-42.2Q-151.1-42.2 -155.25-40.85Q-159.4-39.5 -162.29999999999998-37.2L-162.29999999999998-37.2L-167.9-48.1Q-163.5-51.2 -157.35-52.9Q-151.2-54.6 -144.7-54.6L-144.7-54.6ZM-145.9-9.7Q-141.9-9.7 -138.8-11.55Q-135.7-13.4 -134.39999999999998-17L-134.39999999999998-17L-134.39999999999998-22.5L-145.1-22.5Q-154.7-22.5 -154.7-16.2L-154.7-16.2Q-154.7-13.2 -152.35-11.45Q-150-9.7 -145.9-9.7L-145.9-9.7ZM-86.6 0.8Q-93.29999999999998 0.8 -99.69999999999999-0.85Q-106.1-2.5 -109.89999999999999-5L-109.89999999999999-5L-104.69999999999999-16.2Q-101.1-13.9 -95.99999999999999-12.45Q-90.89999999999999-11 -86-11L-86-11Q-76.1-11 -76.1-15.9L-76.1-15.9Q-76.1-18.2 -78.79999999999998-19.2Q-81.5-20.2 -87.1-20.9L-87.1-20.9Q-93.69999999999999-21.9 -97.99999999999999-23.2Q-102.3-24.5 -105.44999999999999-27.8Q-108.6-31.1 -108.6-37.2L-108.6-37.2Q-108.6-42.3 -105.64999999999999-46.25Q-102.69999999999999-50.2 -97.05-52.4Q-91.39999999999999-54.6 -83.69999999999999-54.6L-83.69999999999999-54.6Q-78-54.6 -72.35-53.35Q-66.69999999999999-52.1 -62.99999999999999-49.9L-62.99999999999999-49.9L-68.19999999999999-38.8Q-75.29999999999998-42.8 -83.69999999999999-42.8L-83.69999999999999-42.8Q-88.69999999999999-42.8 -91.19999999999999-41.4Q-93.69999999999999-40 -93.69999999999999-37.8L-93.69999999999999-37.8Q-93.69999999999999-35.3 -91-34.3Q-88.29999999999998-33.3 -82.39999999999999-32.4L-82.39999999999999-32.4Q-75.79999999999998-31.3 -71.6-30.05Q-67.39999999999999-28.8 -64.29999999999998-25.5Q-61.19999999999999-22.2 -61.19999999999999-16.3L-61.19999999999999-16.3Q-61.19999999999999-11.3 -64.19999999999999-7.4Q-67.19999999999999-3.5 -72.94999999999999-1.35Q-78.69999999999999 0.8 -86.6 0.8L-86.6 0.8ZM-14.199999999999989-53.8L 0.8000000000000114-53.8L-23.499999999999993 3.3Q-27.19999999999999 12.6 -32.64999999999999 16.4Q-38.099999999999994 20.2 -45.79999999999999 20.2L-45.79999999999999 20.2Q-49.999999999999986 20.2 -54.09999999999999 18.9Q-58.19999999999999 17.6-60.79999999999999 15.3L-60.79999999999999 15.3L-55.09999999999999 4.2Q-53.29999999999999 5.8 -50.94999999999999 6.7Q-48.599999999999994 7.6 -46.29999999999999 7.6L-46.29999999999999 7.6Q-43.099999999999994 7.6 -41.099999999999994 6.05Q-39.099999999999994 4.5 -37.499999999999986 0.9L-37.499999999999986 0.9L-37.29999999999999 0.4L-60.59999999999999-53.8L-44.499999999999986-53.8L-29.39999999999999-17.3L-14.199999999999989-53.8Z" />
</svg>